<svg xmlns="http://www.w3.org/2000/svg" viewBox="0 0 800 800" width="800" height="800">
  <defs>
<filter id="soft" x="-40%" y="-40%" width="180%" height="180%">
  <feDropShadow dx="0" dy="14" stdDeviation="18" flood-color="#06332B" flood-opacity="0.18"/>
</filter>
<linearGradient id="bg" x1="0" y1="0" x2="0" y2="1">
  <stop offset="0" stop-color="#FBFDFC"/>
  <stop offset="1" stop-color="#E5F5EC"/>
</linearGradient>
<radialGradient id="glow" cx="0.5" cy="0.45" r="0.55">
  <stop offset="0" stop-color="#FFFFFF" stop-opacity="0.95"/>
  <stop offset="1" stop-color="#CCEBDC" stop-opacity="0"/>
</radialGradient>
<linearGradient id="body" x1="0" y1="0" x2="0.9" y2="1">
  <stop offset="0" stop-color="#17966B"/>
  <stop offset="1" stop-color="#0F6B4C"/>
</linearGradient>
<linearGradient id="cap" x1="0" y1="0" x2="0" y2="1">
  <stop offset="0" stop-color="#0F6B4C"/>
  <stop offset="1" stop-color="#084A35"/>
</linearGradient></defs>
  <rect width="800" height="800" fill="url(#bg)"/>
  <circle cx="400" cy="400" r="312" fill="url(#glow)"/>
  <g transform="translate(668,126) rotate(18) scale(1)" opacity="0.55">
    <path d="M0 0 C16 -12 30 -30 33 -56 C16 -58 1 -45 -3 -24 C-5 -13 -3 -4 0 0 Z" fill="#17966B"/>
    <path d="M1 -2 C6 -14 13 -28 23 -46" stroke="#FFFFFF" stroke-opacity="0.4" stroke-width="2" fill="none" stroke-linecap="round"/>
  </g>
  <g transform="translate(652,142) rotate(-8) scale(0.8)" opacity="0.4">
    <path d="M0 0 C16 -12 30 -30 33 -56 C16 -58 1 -45 -3 -24 C-5 -13 -3 -4 0 0 Z" fill="#0F6B4C"/>
    <path d="M1 -2 C6 -14 13 -28 23 -46" stroke="#FFFFFF" stroke-opacity="0.4" stroke-width="2" fill="none" stroke-linecap="round"/>
  </g>
  <ellipse cx="400" cy="590" rx="150" ry="26" fill="#06332B" opacity="0.10"/>
  
  <g filter="url(#soft)">
    <path d="M330 250 L330 260 L470 260 L470 250 L470 300 C470 300 472 340 462 352 L338 352 C328 340 330 300 330 300 Z" fill="url(#capG)"/>
    <rect x="350" y="168" width="100" height="66" rx="12" fill="url(#capG)"/>
    <rect x="362" y="205" width="76" height="56" rx="8" fill="#0F6B4C"/>
    <rect x="300" y="252" width="200" height="318" rx="40" fill="url(#body)"/>
    <rect x="300" y="330" width="200" height="152" fill="#FFFFFF" opacity="0.94"/>
    <rect x="300" y="346" width="200" height="18" fill="#17966B"/>
    <rect x="300" y="380" width="200" height="10" fill="#D7E5DF"/>
    <rect x="300" y="400" width="130" height="10" rx="5" fill="#E4ECE8"/>
    <rect x="300" y="418" width="90" height="10" rx="5" fill="#E4ECE8"/>
    <rect x="326" y="270" width="36" height="280" rx="18" fill="#FFFFFF" opacity="0.24"/>
  </g>
  </svg>